<mxfile host="app.diagrams.net" agent="Mozilla/5.0 (X11; Linux x86_64) AppleWebKit/537.36 (KHTML, like Gecko) Chrome/130.0.0.0 Safari/537.36" version="24.8.3">
  <diagram name="Page-1" id="XZOO65TgQ4XB1iESKJS0">
    <mxGraphModel dx="1348" dy="837" grid="1" gridSize="10" guides="1" tooltips="1" connect="1" arrows="1" fold="1" page="1" pageScale="1" pageWidth="850" pageHeight="1100" math="0" shadow="0">
      <root>
        <mxCell id="0" />
        <mxCell id="1" parent="0" />
        <mxCell id="uKxwN6abAICpECpGVXLL-11" style="edgeStyle=orthogonalEdgeStyle;rounded=0;orthogonalLoop=1;jettySize=auto;html=1;exitX=1;exitY=0.5;exitDx=0;exitDy=0;entryX=0;entryY=0.5;entryDx=0;entryDy=0;" edge="1" parent="1" source="uKxwN6abAICpECpGVXLL-16" target="uKxwN6abAICpECpGVXLL-19">
          <mxGeometry relative="1" as="geometry" />
        </mxCell>
        <mxCell id="uKxwN6abAICpECpGVXLL-12" style="edgeStyle=orthogonalEdgeStyle;rounded=0;orthogonalLoop=1;jettySize=auto;html=1;exitX=1;exitY=0.5;exitDx=0;exitDy=0;entryX=0;entryY=0.25;entryDx=0;entryDy=0;" edge="1" parent="1" source="uKxwN6abAICpECpGVXLL-16" target="uKxwN6abAICpECpGVXLL-18">
          <mxGeometry relative="1" as="geometry">
            <Array as="points">
              <mxPoint x="509" y="250" />
              <mxPoint x="509" y="369" />
            </Array>
          </mxGeometry>
        </mxCell>
        <mxCell id="uKxwN6abAICpECpGVXLL-13" style="edgeStyle=orthogonalEdgeStyle;rounded=0;orthogonalLoop=1;jettySize=auto;html=1;exitX=1;exitY=0.5;exitDx=0;exitDy=0;entryX=0;entryY=0.75;entryDx=0;entryDy=0;" edge="1" parent="1" source="uKxwN6abAICpECpGVXLL-16" target="uKxwN6abAICpECpGVXLL-21">
          <mxGeometry relative="1" as="geometry">
            <Array as="points">
              <mxPoint x="508" y="250" />
              <mxPoint x="508" y="130" />
            </Array>
          </mxGeometry>
        </mxCell>
        <mxCell id="uKxwN6abAICpECpGVXLL-14" value="2. Who Can Perform Service?" style="edgeLabel;html=1;align=center;verticalAlign=middle;resizable=0;points=[];" vertex="1" connectable="0" parent="uKxwN6abAICpECpGVXLL-13">
          <mxGeometry x="-0.817" y="1" relative="1" as="geometry">
            <mxPoint x="46" y="-14" as="offset" />
          </mxGeometry>
        </mxCell>
        <mxCell id="uKxwN6abAICpECpGVXLL-15" value="5. Service confirmed / bid accepted" style="edgeStyle=orthogonalEdgeStyle;rounded=0;orthogonalLoop=1;jettySize=auto;html=1;exitX=0.5;exitY=1;exitDx=0;exitDy=0;entryX=0;entryY=0.75;entryDx=0;entryDy=0;" edge="1" parent="1" source="uKxwN6abAICpECpGVXLL-16" target="uKxwN6abAICpECpGVXLL-18">
          <mxGeometry x="0.2398" y="-12" relative="1" as="geometry">
            <mxPoint as="offset" />
          </mxGeometry>
        </mxCell>
        <mxCell id="uKxwN6abAICpECpGVXLL-16" value="&lt;b&gt;Requestor&lt;/b&gt;" style="rounded=1;whiteSpace=wrap;html=1;fillColor=#d5e8d4;strokeColor=#82b366;" vertex="1" parent="1">
          <mxGeometry x="200" y="190" width="140" height="120" as="geometry" />
        </mxCell>
        <mxCell id="uKxwN6abAICpECpGVXLL-17" value="3. Bid" style="edgeStyle=orthogonalEdgeStyle;rounded=0;orthogonalLoop=1;jettySize=auto;html=1;exitX=0;exitY=0.5;exitDx=0;exitDy=0;entryX=0.75;entryY=1;entryDx=0;entryDy=0;" edge="1" parent="1" source="uKxwN6abAICpECpGVXLL-18" target="uKxwN6abAICpECpGVXLL-16">
          <mxGeometry x="-0.1988" y="-14" relative="1" as="geometry">
            <mxPoint as="offset" />
          </mxGeometry>
        </mxCell>
        <mxCell id="uKxwN6abAICpECpGVXLL-18" value="&lt;b&gt;Potential Performer C&lt;/b&gt;" style="rounded=1;whiteSpace=wrap;html=1;fillColor=#b1ddf0;strokeColor=#10739e;" vertex="1" parent="1">
          <mxGeometry x="543" y="339" width="140" height="120" as="geometry" />
        </mxCell>
        <mxCell id="uKxwN6abAICpECpGVXLL-19" value="&lt;b&gt;Potential Performer B&lt;/b&gt;" style="rounded=1;whiteSpace=wrap;html=1;fillColor=#b1ddf0;strokeColor=#10739e;" vertex="1" parent="1">
          <mxGeometry x="606" y="190" width="140" height="120" as="geometry" />
        </mxCell>
        <mxCell id="uKxwN6abAICpECpGVXLL-20" value="3. Bid" style="edgeStyle=orthogonalEdgeStyle;rounded=0;orthogonalLoop=1;jettySize=auto;html=1;exitX=0;exitY=0.5;exitDx=0;exitDy=0;entryX=0.75;entryY=0;entryDx=0;entryDy=0;" edge="1" parent="1" source="uKxwN6abAICpECpGVXLL-21" target="uKxwN6abAICpECpGVXLL-16">
          <mxGeometry x="-0.1974" y="-12" relative="1" as="geometry">
            <mxPoint as="offset" />
          </mxGeometry>
        </mxCell>
        <mxCell id="uKxwN6abAICpECpGVXLL-21" value="&lt;b&gt;Potential Performer A&lt;/b&gt;" style="rounded=1;whiteSpace=wrap;html=1;fillColor=#b1ddf0;strokeColor=#10739e;" vertex="1" parent="1">
          <mxGeometry x="534" y="40" width="140" height="120" as="geometry" />
        </mxCell>
        <mxCell id="uKxwN6abAICpECpGVXLL-22" value="1. Propose service" style="edgeStyle=orthogonalEdgeStyle;rounded=0;orthogonalLoop=1;jettySize=auto;html=1;exitX=0;exitY=0.25;exitDx=0;exitDy=0;entryX=0;entryY=0.5;entryDx=0;entryDy=0;" edge="1" parent="1">
          <mxGeometry x="-0.0162" y="-18" relative="1" as="geometry">
            <Array as="points">
              <mxPoint x="151" y="209" />
              <mxPoint x="151" y="239" />
            </Array>
            <mxPoint as="offset" />
            <mxPoint x="200" y="209" as="sourcePoint" />
            <mxPoint x="200" y="239" as="targetPoint" />
          </mxGeometry>
        </mxCell>
        <mxCell id="uKxwN6abAICpECpGVXLL-23" value="4. Pick Performer &lt;br&gt;(with Patient)" style="edgeStyle=orthogonalEdgeStyle;rounded=0;orthogonalLoop=1;jettySize=auto;html=1;exitX=0;exitY=0.5;exitDx=0;exitDy=0;entryX=0;entryY=0.75;entryDx=0;entryDy=0;" edge="1" parent="1">
          <mxGeometry relative="1" as="geometry">
            <Array as="points">
              <mxPoint x="104" y="255" />
              <mxPoint x="104" y="285" />
            </Array>
            <mxPoint x="200" y="255" as="sourcePoint" />
            <mxPoint x="200" y="285" as="targetPoint" />
          </mxGeometry>
        </mxCell>
      </root>
    </mxGraphModel>
  </diagram>
</mxfile>
